<?xml version="1.0" encoding="UTF-8"?>
<svg id="Capa_2" data-name="Capa 2" xmlns="http://www.w3.org/2000/svg" viewBox="0 0 535.95 173.81">
  <defs>
    <style>
      .cls-1 {
        fill: #3abced;
      }
    </style>
  </defs>
  <g id="Capa_1-2" data-name="Capa 1">
    <path class="cls-1" d="M91.59,87.63c7.12.04,14.88.23,16.12.42,9.76,1.49,19.45,4.54,27.92,9.68,11.61,7.05,27.05,21.96,20.08,37.05-3.07,6.64-9.17,8.77-15.2,9.2-4.95,10.64-10.56,19.86-17.82,28.7,21.92,3.47,45.24-1.04,56.99-21.39l.02-.03.06-.1c3.57-6.19,5.75-13.16,6.38-20.27,2.21-46.47-50.05-73.79-93.55-73.35-1.65,9.18-2.13,20.07-1,30.08"/>
    <path class="cls-1" d="M295.83,56.58c0-7.18-1.38-13.48-4.15-18.87-2.77-5.38-6.62-9.56-11.54-12.53-4.92-2.97-10.7-4.45-17.34-4.45s-11.99,1.46-16.99,4.39c-3.52,2.06-6.56,4.72-9.13,7.98V0h-34.43l4.68,24.13v66.07h29.75v-10.42c2.54,3.29,5.57,5.98,9.07,8.08,4.96,2.96,10.65,4.45,17.04,4.45s12.42-1.49,17.34-4.45c4.92-2.97,8.77-7.14,11.54-12.54,2.77-5.39,4.15-11.63,4.15-18.74M264.27,63.43c-1.06,2-2.54,3.58-4.45,4.75-1.92,1.17-4.12,1.76-6.62,1.76s-5.07-.58-7.5-1.76c-2.42-1.17-4.53-2.75-6.32-4.75-1.09-1.2-1.98-2.5-2.7-3.92-.48-.93-.86-1.91-1.17-2.92.32-1.05.71-2.04,1.21-3,.7-1.4,1.58-2.71,2.66-3.91,1.79-2.02,3.91-3.62,6.32-4.8,2.43-1.17,4.92-1.75,7.5-1.75s4.7.58,6.62,1.75c1.91,1.18,3.4,2.78,4.45,4.8,1.05,2.03,1.58,4.34,1.58,6.92s-.53,4.86-1.58,6.85Z"/>
    <path class="cls-1" d="M506.15,56.46v33.74h29.75v-37.95c0-6.32-1.17-11.85-3.51-16.57-2.34-4.72-5.76-8.39-10.25-11.01-4.49-2.61-9.9-3.92-16.22-3.92-4.92,0-9.53,1.21-13.82,3.63-4.3,2.42-7.93,6.07-10.89,10.95-.19.31-.36.64-.54.96-.09-.2-.18-.41-.28-.61-2.34-4.72-5.74-8.39-10.19-11.01-4.45-2.61-9.84-3.92-16.16-3.92-4.92,0-9.53,1.21-13.82,3.63-4.3,2.42-7.95,6.07-10.95,10.95,0,0,0,.01-.01.02l-2.04-12.49h-29.76l4.69,24.13v43.23h29.75v-32.1c0-2.81.45-5.21,1.35-7.2.9-1.99,2.23-3.51,3.98-4.57,1.76-1.05,3.85-1.58,6.27-1.58,3.44,0,6.07,1.02,7.91,3.05,1.83,2.03,2.75,4.92,2.75,8.67v33.74h29.75v-32.1c0-2.81.45-5.21,1.35-7.2.9-1.99,2.23-3.51,3.98-4.57,1.76-1.05,3.85-1.58,6.27-1.58,3.44,0,6.07,1.02,7.91,3.05,1.83,2.03,2.75,4.92,2.75,8.67"/>
    <path class="cls-1" d="M219.36,138.78c1.66-.87,3.59-1.3,5.81-1.3,2.77,0,5.12.66,7.08,1.99,1.96,1.33,3.19,3.17,3.71,5.53h7.24c-.37-2.62-1.38-4.91-3.04-6.89-1.66-1.97-3.78-3.51-6.36-4.62-2.58-1.11-5.46-1.66-8.63-1.66-3.61,0-6.79.69-9.54,2.07-2.75,1.38-4.89,3.31-6.44,5.78-1.55,2.47-2.32,5.33-2.32,8.57s.77,6.1,2.32,8.57c1.55,2.47,3.69,4.4,6.44,5.78,2.75,1.38,5.93,2.07,9.54,2.07,3.17,0,6.04-.55,8.63-1.66,2.58-1.11,4.7-2.64,6.36-4.62,1.66-1.97,2.67-4.25,3.04-6.83h-7.24c-.48,2.25-1.7,4.06-3.65,5.42-1.96,1.36-4.33,2.04-7.13,2.04-2.21,0-4.15-.43-5.81-1.3-1.66-.87-2.94-2.11-3.84-3.73-.9-1.62-1.36-3.54-1.36-5.75s.45-4.18,1.36-5.78c.9-1.6,2.18-2.84,3.84-3.71"/>
    <path class="cls-1" d="M274.6,133.91c-2.86-1.38-6.18-2.07-9.98-2.07s-7.13.69-9.98,2.07c-2.86,1.38-5.09,3.3-6.69,5.75-1.6,2.45-2.41,5.32-2.41,8.6s.8,6.1,2.41,8.57c1.6,2.47,3.83,4.4,6.69,5.78,2.86,1.38,6.18,2.07,9.98,2.07s7.12-.69,9.98-2.07c2.86-1.38,5.09-3.31,6.69-5.78,1.6-2.47,2.41-5.33,2.41-8.57s-.8-6.15-2.41-8.6c-1.6-2.45-3.83-4.37-6.69-5.75M274.96,153.99c-.96,1.6-2.31,2.85-4.07,3.73-1.75.89-3.84,1.33-6.28,1.33s-4.48-.44-6.25-1.33c-1.77-.88-3.13-2.13-4.09-3.73-.96-1.6-1.44-3.51-1.44-5.72s.48-4.12,1.44-5.72c.96-1.6,2.32-2.85,4.09-3.73,1.77-.88,3.85-1.33,6.25-1.33s4.53.44,6.28,1.33c1.75.89,3.11,2.13,4.07,3.73.96,1.6,1.44,3.51,1.44,5.72s-.48,4.12-1.44,5.72Z"/>
    <path class="cls-1" d="M315.49,133.61c-2.06-1.18-4.57-1.77-7.52-1.77-2.65,0-5.05.62-7.19,1.85-2.14,1.23-3.89,3-5.25,5.28-.23.38-.42.8-.62,1.21l-1.26-7.57h-7.19l1.88,10.23v21.07h7.19v-15.26c0-2.17.41-4.07,1.25-5.7.83-1.62,2.01-2.88,3.54-3.79,1.53-.9,3.31-1.35,5.34-1.35,2.95,0,5.19.84,6.72,2.52,1.53,1.68,2.3,4.16,2.3,7.44v16.15h7.19v-17.31c0-3.1-.54-5.74-1.63-7.94-1.09-2.19-2.66-3.88-4.73-5.06"/>
    <path class="cls-1" d="M355.41,146.86c-1.79-.83-4.27-1.39-7.44-1.69l-7.91-.72c-2.4-.22-4.04-.62-4.92-1.19-.88-.57-1.33-1.26-1.33-2.07,0-1.29.73-2.27,2.19-2.93,1.46-.66,3.47-1,6.06-1,2.43,0,4.38.27,5.83.8,1.46.54,2.54,1.2,3.26,1.99.72.79,1.15,1.61,1.3,2.46h7.3c-.19-2.1-1.03-3.95-2.54-5.56-1.51-1.61-3.54-2.86-6.08-3.76-2.54-.9-5.44-1.35-8.68-1.35s-5.88.38-8.24,1.13c-2.36.76-4.2,1.85-5.53,3.29-1.33,1.44-1.99,3.23-1.99,5.37,0,1.48.4,2.87,1.22,4.18.81,1.31,2.17,2.42,4.09,3.32,1.92.9,4.54,1.5,7.85,1.8l6.14.55c2.8.26,4.71.65,5.72,1.16,1.01.52,1.52,1.27,1.52,2.27,0,1.48-.76,2.57-2.27,3.29-1.51.72-3.76,1.08-6.75,1.08-2.07,0-3.9-.24-5.5-.72-1.6-.48-2.9-1.17-3.87-2.07-.98-.9-1.58-1.95-1.8-3.13h-7.3c.11,2.25.91,4.23,2.41,5.94,1.49,1.72,3.6,3.04,6.33,3.98,2.73.94,5.95,1.41,9.68,1.41s6.62-.41,9.02-1.24c2.4-.83,4.18-2.02,5.36-3.57,1.18-1.55,1.77-3.37,1.77-5.47,0-1.62-.37-3.08-1.11-4.37-.74-1.29-2-2.35-3.79-3.18"/>
    <path class="cls-1" d="M397.38,132.61h-7.19v15.26c0,2.18-.41,4.08-1.22,5.72-.81,1.64-1.94,2.9-3.4,3.79-1.46.89-3.2,1.33-5.23,1.33-2.8,0-4.95-.84-6.44-2.52-1.49-1.68-2.24-4.14-2.24-7.38v-16.2h-7.19v17.31c0,3.06.54,5.7,1.6,7.91,1.07,2.21,2.61,3.91,4.62,5.09,2.01,1.18,4.45,1.77,7.33,1.77,2.62,0,4.98-.62,7.08-1.85,2.1-1.23,3.82-3,5.14-5.31.2-.36.37-.74.55-1.12l1.21,7.51h7.19l-1.83-10.18v-21.13Z"/>
    <rect class="cls-1" x="404.22" y="121.33" width="7.19" height="42.58"/>
    <path class="cls-1" d="M435.1,158.77c-2.54,0-4.38-.53-5.5-1.58-1.12-1.05-1.69-2.89-1.69-5.5v-13.55h14.55v-5.53h-14.55v-8.18h-4.2l-2.99,8.74-6.69,1.71v3.26h6.69v14.66c0,2.32.43,4.38,1.3,6.17.87,1.79,2.24,3.19,4.12,4.2,1.88,1.01,4.35,1.52,7.41,1.52,1.84,0,3.64-.22,5.39-.66,1.75-.44,3.11-.9,4.06-1.38v-5.92c-1.14.66-2.34,1.17-3.59,1.52-1.25.35-2.69.53-4.31.53"/>
    <polygon class="cls-1" points="446.9 132.39 446.9 163.92 454.09 163.92 454.09 132.39 450.5 133.06 446.9 132.39"/>
    <path class="cls-1" d="M450.5,120.28c-1.36,0-2.49.38-3.37,1.13-.88.76-1.33,1.74-1.33,2.96s.44,2.2,1.33,2.96c.89.76,2.01,1.13,3.37,1.13s2.53-.38,3.4-1.13c.87-.76,1.3-1.74,1.3-2.96s-.43-2.2-1.3-2.96c-.87-.76-2-1.13-3.4-1.13"/>
    <path class="cls-1" d="M488.12,133.61c-2.06-1.18-4.57-1.77-7.52-1.77-2.65,0-5.05.62-7.19,1.85-2.14,1.23-3.89,3-5.25,5.28-.23.38-.42.8-.62,1.21l-1.26-7.57h-7.19l1.88,10.23v21.07h7.19v-15.26c0-2.17.41-4.07,1.24-5.7.83-1.62,2.01-2.88,3.54-3.79,1.53-.9,3.31-1.35,5.34-1.35,2.95,0,5.19.84,6.72,2.52,1.53,1.68,2.3,4.16,2.3,7.44v16.15h7.19v-17.31c0-3.1-.54-5.74-1.63-7.94-1.09-2.19-2.66-3.88-4.73-5.06"/>
    <path class="cls-1" d="M528.76,132.61v7.13c-.16-.23-.29-.46-.47-.69-1.01-1.31-2.25-2.51-3.71-3.6-1.46-1.09-3.1-1.96-4.92-2.63-1.82-.66-3.81-.99-5.94-.99-2.88,0-5.46.62-7.74,1.85-2.29,1.23-4.09,2.96-5.42,5.17-1.33,2.21-1.99,4.81-1.99,7.8s.66,5.59,1.99,7.8c1.33,2.21,3.13,3.94,5.42,5.17,2.28,1.24,4.87,1.85,7.74,1.85,2.65,0,5.07-.49,7.24-1.46,2.17-.98,4.05-2.22,5.61-3.73.83-.8,1.55-1.64,2.18-2.5v2.44c0,3.83-1.11,6.78-3.32,8.85-2.21,2.06-5.42,3.1-9.62,3.1-2.4,0-4.79-.36-7.19-1.08-2.4-.72-4.72-1.96-6.97-3.73v5.97c2.21,1.51,4.5,2.64,6.86,3.37,2.36.74,4.94,1.11,7.74,1.11,3.83,0,7.23-.68,10.17-2.05,2.95-1.36,5.27-3.4,6.97-6.11,1.7-2.71,2.54-6.07,2.54-10.09v-22.95h-7.19ZM523.15,153.91c-2.19,1.51-4.6,2.27-7.22,2.27-2.14,0-3.96-.41-5.48-1.22-1.51-.81-2.66-1.94-3.46-3.37-.79-1.44-1.19-3.08-1.19-4.92s.39-3.54,1.19-4.98c.79-1.44,1.94-2.56,3.46-3.37,1.51-.81,3.34-1.22,5.48-1.22,2.62,0,5.02.75,7.22,2.24,2.19,1.49,4.16,3.94,5.89,7.33-1.73,3.32-3.7,5.73-5.89,7.24Z"/>
    <path class="cls-1" d="M304.14,90.19v19.33h29.75v-29.77c2.55,3.29,5.57,6,9.08,8.1,4.96,2.97,10.64,4.45,17.04,4.45s12.42-1.48,17.34-4.45c4.92-2.97,8.77-7.14,11.54-12.53,2.77-5.39,4.16-11.63,4.16-18.74s-1.39-13.47-4.16-18.86c-2.77-5.39-6.62-9.57-11.54-12.53-4.92-2.97-10.7-4.45-17.34-4.45s-11.99,1.46-16.98,4.39c-3.53,2.07-6.56,4.75-9.14,8.01v-10.3h-4.69s-29.75,0-29.75,0l4.69,24.13v43.22ZM332.72,56.58c.78-2.58,2.07-4.88,3.87-6.91,1.8-2.03,3.9-3.63,6.32-4.8,2.42-1.17,4.92-1.76,7.5-1.76s4.7.59,6.62,1.76c1.91,1.17,3.4,2.77,4.45,4.8,1.05,2.03,1.58,4.34,1.58,6.91s-.53,4.86-1.58,6.85c-1.05,1.99-2.54,3.57-4.45,4.74-1.91,1.17-4.12,1.76-6.62,1.76s-5.08-.59-7.5-1.76c-2.42-1.17-4.53-2.75-6.32-4.74-1.8-1.99-3.08-4.28-3.87-6.85h0Z"/>
    <path class="cls-1" d="M82.84,108.15c-3.53-6.18-7.24-13.01-7.7-14.18-3.59-9.2-5.8-19.11-5.57-29.02.3-13.58,5.5-34.4,22.04-35.92,7.29-.67,12.18,3.56,15.57,8.56,11.69-1.03,22.48-.78,33.76,1.08C132.98,17.96,117.42.02,93.92.02h-.14c-7.15,0-14.27,1.6-20.75,4.61-41.35,21.32-38.88,80.24-16.75,117.69,8.77-3.16,18.45-8.19,26.55-14.17"/>
    <path class="cls-1" d="M104.93,104.21c-3.59,6.15-7.64,12.77-8.43,13.75-6.17,7.71-13.65,14.57-22.34,19.34-11.91,6.53-32.54,12.44-42.13-1.13-4.22-5.98-3.01-12.33-.37-17.76-6.74-9.61-11.92-19.07-15.94-29.78-13.97,17.25-21.72,39.69-9.97,60.05l.02.03.06.1c3.57,6.19,8.52,11.56,14.37,15.66,39.14,25.15,88.93-6.45,110.29-44.34-7.13-6.02-16.32-11.88-25.55-15.91"/>
  </g>
</svg>